<svg width="435" height="76" viewBox="0 0 435 76" fill="none" xmlns="http://www.w3.org/2000/svg">
<path d="M3.47477 49.788L8.00388 27.1425H9.65377L5.41582 48.2999H18.4532L18.1297 49.788H3.47477ZM30.0726 49.9174C28.5629 49.9174 27.2473 49.637 26.1259 49.0763C25.0044 48.494 24.1309 47.6744 23.5054 46.6176C22.9016 45.5608 22.5996 44.3207 22.5996 42.8973C22.5996 40.9563 23.0094 39.2309 23.829 37.7212C24.6701 36.1899 25.8131 34.9822 27.2581 34.0979C28.7247 33.2136 30.3962 32.7715 32.2725 32.7715C33.8038 32.7715 35.1194 33.0627 36.2193 33.645C37.3408 34.2057 38.2035 35.0145 38.8073 36.0713C39.4328 37.1065 39.7455 38.3466 39.7455 39.7916C39.7455 41.7327 39.325 43.4688 38.4838 45.0001C37.6643 46.5098 36.5212 47.7068 35.0547 48.591C33.6097 49.4753 31.949 49.9174 30.0726 49.9174ZM30.202 48.4616C31.7333 48.4616 33.092 48.095 34.2782 47.3617C35.4644 46.6284 36.4026 45.6148 37.0928 44.3207C37.7829 43.0051 38.128 41.5278 38.128 39.8887C38.128 38.077 37.5996 36.686 36.5428 35.7154C35.5076 34.7233 34.041 34.2273 32.1431 34.2273C30.6334 34.2273 29.2747 34.6047 28.0669 35.3596C26.8807 36.0929 25.9425 37.1065 25.2524 38.4005C24.5622 39.6946 24.2172 41.1611 24.2172 42.8002C24.2172 44.5903 24.7348 45.9814 25.77 46.9735C26.8268 47.9656 28.3041 48.4616 30.202 48.4616ZM50.231 56.1935C48.6781 56.1935 47.2762 55.9562 46.0254 55.4817C44.7745 55.0288 43.7392 54.3818 42.9197 53.5407L43.9549 52.3437C44.6451 53.0986 45.5401 53.6809 46.64 54.0907C47.7615 54.522 49.0016 54.7377 50.3604 54.7377C52.6249 54.7377 54.3826 54.2093 55.6335 53.1525C56.906 52.0957 57.7579 50.4566 58.1892 48.2352L59.1598 43.3826L59.9685 40.9563L60.195 38.4329L61.2949 32.9009H62.8477L59.8391 47.9764C59.2784 50.8664 58.2108 52.9584 56.6364 54.2524C55.0836 55.5464 52.9484 56.1935 50.231 56.1935ZM51.3956 49.1733C49.9074 49.1733 48.6026 48.9038 47.4811 48.3646C46.3812 47.8254 45.5293 47.049 44.9254 46.0353C44.3215 45.0217 44.0196 43.8247 44.0196 42.4444C44.0196 41.0641 44.2568 39.7916 44.7313 38.627C45.2058 37.4624 45.8636 36.4379 46.7047 35.5537C47.5674 34.6694 48.5811 33.9901 49.7457 33.5156C50.9319 33.0195 52.2259 32.7715 53.6278 32.7715C55.0512 32.7715 56.2913 33.0195 57.3481 33.5156C58.4049 34.0116 59.2245 34.7449 59.8068 35.7154C60.4107 36.6644 60.7126 37.8506 60.7126 39.274C60.7342 41.1288 60.3567 42.8002 59.5803 44.2884C58.8039 45.7765 57.7148 46.9627 56.3129 47.847C54.9326 48.7312 53.2935 49.1733 51.3956 49.1733ZM51.6867 47.7176C53.2396 47.7176 54.6091 47.3725 55.7953 46.6823C56.9815 45.9706 57.9196 45.0001 58.6098 43.7708C59.3215 42.5414 59.6774 41.1396 59.6774 39.5652C59.6774 37.8829 59.1382 36.5781 58.0598 35.6507C57.003 34.7018 55.5257 34.2273 53.6278 34.2273C52.0965 34.2273 50.727 34.5832 49.5192 35.2949C48.333 35.985 47.3841 36.9448 46.6724 38.1741C45.9822 39.4034 45.6371 40.8053 45.6371 42.3797C45.6371 44.0619 46.1655 45.3775 47.2223 46.3265C48.3007 47.2539 49.7888 47.7176 51.6867 47.7176ZM67.5593 49.788L70.9238 32.9009H72.5413L69.1769 49.788H67.5593ZM72.7354 28.7924C72.3904 28.7924 72.0992 28.6738 71.862 28.4365C71.6247 28.1993 71.5061 27.9189 71.5061 27.5954C71.5061 27.2072 71.6355 26.8729 71.8943 26.5925C72.1747 26.3122 72.5198 26.172 72.9295 26.172C73.2962 26.172 73.5981 26.2906 73.8354 26.5278C74.0726 26.7651 74.1912 27.0454 74.1912 27.3689C74.1912 27.7787 74.051 28.1238 73.7707 28.4042C73.4903 28.663 73.1452 28.7924 72.7354 28.7924ZM88.579 32.7715C90.1102 32.7715 91.3503 33.0735 92.2993 33.6773C93.2698 34.2597 93.9276 35.1008 94.2727 36.2007C94.6393 37.2791 94.6717 38.5515 94.3698 40.0181L92.4287 49.788H90.8112L92.7522 40.0181C93.1189 38.228 92.914 36.8154 92.1375 35.7801C91.3827 34.7449 90.0563 34.2273 88.1584 34.2273C86.2389 34.2273 84.6322 34.7665 83.3381 35.8448C82.0441 36.9016 81.1814 38.4868 80.7501 40.6004L78.9061 49.788H77.2886L80.653 32.9009H82.2382L81.2677 37.7859L80.8471 37.3653C81.6451 35.7694 82.7127 34.6047 84.0499 33.8714C85.387 33.1382 86.8967 32.7715 88.579 32.7715ZM95.5296 53.0231L112.223 22.5487H113.808L97.1471 53.0231H95.5296ZM122.159 49.788L126.688 27.1425H128.338L123.809 49.788H122.159ZM143.734 32.7715C145.266 32.7715 146.506 33.0735 147.455 33.6773C148.425 34.2597 149.083 35.1008 149.428 36.2007C149.795 37.2791 149.827 38.5515 149.525 40.0181L147.584 49.788H145.967L147.908 40.0181C148.274 38.228 148.069 36.8154 147.293 35.7801C146.538 34.7449 145.212 34.2273 143.314 34.2273C141.394 34.2273 139.788 34.7665 138.494 35.8448C137.2 36.9016 136.337 38.4868 135.906 40.6004L134.062 49.788H132.444L135.809 32.9009H137.394L136.423 37.7859L136.003 37.3653C136.801 35.7694 137.868 34.6047 139.205 33.8714C140.543 33.1382 142.052 32.7715 143.734 32.7715ZM160.131 49.9174C158.794 49.9174 157.522 49.7233 156.314 49.3351C155.128 48.9253 154.211 48.4077 153.564 47.7823L154.438 46.5206C155.063 47.1245 155.894 47.6097 156.929 47.9764C157.986 48.3214 159.096 48.494 160.261 48.494C162.008 48.494 163.356 48.1813 164.305 47.5558C165.275 46.9304 165.761 46.0785 165.761 45.0001C165.761 44.2668 165.523 43.7169 165.049 43.3502C164.596 42.9836 163.992 42.7032 163.237 42.5091C162.504 42.315 161.717 42.1317 160.876 41.9591C160.056 41.7866 159.269 41.5709 158.514 41.3121C157.781 41.0533 157.177 40.6543 156.702 40.1151C156.249 39.576 156.023 38.8319 156.023 37.8829C156.023 36.8477 156.314 35.9527 156.896 35.1978C157.479 34.4214 158.298 33.8283 159.355 33.4185C160.412 32.9872 161.652 32.7715 163.075 32.7715C164.132 32.7715 165.167 32.9225 166.181 33.2244C167.216 33.5048 168.036 33.9038 168.64 34.4214L167.896 35.6831C167.249 35.187 166.483 34.8204 165.599 34.5832C164.736 34.3244 163.852 34.1949 162.946 34.1949C161.285 34.1949 159.981 34.5185 159.032 35.1655C158.083 35.8125 157.608 36.6644 157.608 37.7212C157.608 38.4545 157.845 39.0152 158.32 39.4034C158.794 39.7916 159.398 40.0828 160.131 40.2769C160.865 40.471 161.652 40.6543 162.493 40.8269C163.334 40.9778 164.121 41.1935 164.855 41.4739C165.61 41.7327 166.213 42.1209 166.666 42.6385C167.141 43.1561 167.378 43.8894 167.378 44.8383C167.378 45.8951 167.076 46.8117 166.472 47.5882C165.868 48.343 165.027 48.9253 163.949 49.3351C162.871 49.7233 161.598 49.9174 160.131 49.9174ZM179.592 49.9174C178.039 49.9174 176.691 49.637 175.548 49.0763C174.405 48.494 173.521 47.6744 172.895 46.6176C172.291 45.5608 171.989 44.3207 171.989 42.8973C171.989 40.9347 172.399 39.1985 173.219 37.6888C174.06 36.1576 175.214 34.9606 176.68 34.0979C178.147 33.2136 179.818 32.7715 181.695 32.7715C183.204 32.7715 184.498 33.0411 185.577 33.5803C186.677 34.0979 187.518 34.8851 188.1 35.9419L186.774 36.7507C186.256 35.888 185.566 35.2517 184.703 34.842C183.84 34.4322 182.805 34.2273 181.597 34.2273C180.045 34.2273 178.664 34.6047 177.457 35.3596C176.27 36.0929 175.332 37.1065 174.642 38.4005C173.952 39.6946 173.607 41.1611 173.607 42.8002C173.607 44.5903 174.135 45.9814 175.192 46.9735C176.249 47.9656 177.759 48.4616 179.721 48.4616C180.843 48.4616 181.889 48.2567 182.859 47.847C183.851 47.4156 184.671 46.801 185.318 46.003L186.45 46.9088C185.717 47.8577 184.736 48.6018 183.506 49.141C182.298 49.6586 180.994 49.9174 179.592 49.9174ZM191.487 49.788L194.851 32.9009H196.436L195.401 37.98L195.207 37.3977C195.94 35.8664 196.932 34.7126 198.183 33.9361C199.434 33.1597 201.009 32.7715 202.907 32.7715L202.615 34.3567C202.529 34.3567 202.443 34.3567 202.357 34.3567C202.27 34.3351 202.184 34.3244 202.098 34.3244C200.2 34.3244 198.625 34.8959 197.375 36.0389C196.145 37.1604 195.304 38.8535 194.851 41.118L193.104 49.788H191.487ZM212.511 49.9174C210.936 49.9174 209.567 49.637 208.402 49.0763C207.238 48.494 206.343 47.6744 205.717 46.6176C205.113 45.5608 204.811 44.2992 204.811 42.8326C204.811 40.9131 205.21 39.1985 206.008 37.6888C206.828 36.1791 207.928 34.9822 209.308 34.0979C210.71 33.2136 212.284 32.7715 214.031 32.7715C215.52 32.7715 216.792 33.0519 217.849 33.6126C218.906 34.1734 219.725 34.9822 220.307 36.0389C220.911 37.0742 221.213 38.3358 221.213 39.824C221.213 40.1475 221.192 40.471 221.149 40.7945C221.105 41.118 221.062 41.4199 221.019 41.7003H206.041L206.267 40.4386H220.243L219.596 40.9886C219.833 39.5005 219.736 38.2604 219.305 37.2683C218.873 36.2546 218.194 35.489 217.266 34.9714C216.361 34.4322 215.271 34.1626 213.999 34.1626C212.532 34.1626 211.217 34.54 210.052 35.2949C208.909 36.0282 208.014 37.0418 207.367 38.3358C206.72 39.6083 206.397 41.0857 206.397 42.7679C206.397 44.6011 206.925 46.0138 207.982 47.0058C209.039 47.9764 210.591 48.4616 212.64 48.4616C213.848 48.4616 214.948 48.2675 215.94 47.8793C216.954 47.4695 217.784 46.9088 218.431 46.1971L219.175 47.3294C218.442 48.1273 217.482 48.7636 216.296 49.238C215.131 49.691 213.87 49.9174 212.511 49.9174ZM229.718 49.788L225.448 32.9009H227.098L231.077 48.8822H230.3L240.62 32.9009H242.335L231.368 49.788H229.718ZM250.735 49.9174C249.161 49.9174 247.791 49.637 246.627 49.0763C245.462 48.494 244.567 47.6744 243.942 46.6176C243.338 45.5608 243.036 44.2992 243.036 42.8326C243.036 40.9131 243.435 39.1985 244.233 37.6888C245.052 36.1791 246.152 34.9822 247.533 34.0979C248.934 33.2136 250.509 32.7715 252.256 32.7715C253.744 32.7715 255.016 33.0519 256.073 33.6126C257.13 34.1734 257.95 34.9822 258.532 36.0389C259.136 37.0742 259.438 38.3358 259.438 39.824C259.438 40.1475 259.416 40.471 259.373 40.7945C259.33 41.118 259.287 41.4199 259.244 41.7003H244.265L244.492 40.4386H258.467L257.82 40.9886C258.057 39.5005 257.96 38.2604 257.529 37.2683C257.098 36.2546 256.418 35.489 255.491 34.9714C254.585 34.4322 253.496 34.1626 252.223 34.1626C250.757 34.1626 249.441 34.54 248.277 35.2949C247.134 36.0282 246.239 37.0418 245.592 38.3358C244.945 39.6083 244.621 41.0857 244.621 42.7679C244.621 44.6011 245.149 46.0138 246.206 47.0058C247.263 47.9764 248.816 48.4616 250.865 48.4616C252.072 48.4616 253.172 48.2675 254.164 47.8793C255.178 47.4695 256.008 46.9088 256.655 46.1971L257.4 47.3294C256.666 48.1273 255.707 48.7636 254.52 49.238C253.356 49.691 252.094 49.9174 250.735 49.9174ZM263.923 49.788L267.288 32.9009H268.873L267.838 37.98L267.644 37.3977C268.377 35.8664 269.369 34.7126 270.62 33.9361C271.871 33.1597 273.445 32.7715 275.343 32.7715L275.052 34.3567C274.966 34.3567 274.879 34.3567 274.793 34.3567C274.707 34.3351 274.621 34.3244 274.534 34.3244C272.636 34.3244 271.062 34.8959 269.811 36.0389C268.582 37.1604 267.741 38.8535 267.288 41.118L265.541 49.788H263.923ZM277.733 41.8297L278.024 40.3739H286.338L286.047 41.8297H277.733ZM295.78 49.9174C294.443 49.9174 293.17 49.7233 291.962 49.3351C290.776 48.9253 289.86 48.4077 289.213 47.7823L290.086 46.5206C290.711 47.1245 291.542 47.6097 292.577 47.9764C293.634 48.3214 294.744 48.494 295.909 48.494C297.656 48.494 299.004 48.1813 299.953 47.5558C300.923 46.9304 301.409 46.0785 301.409 45.0001C301.409 44.2668 301.172 43.7169 300.697 43.3502C300.244 42.9836 299.64 42.7032 298.885 42.5091C298.152 42.315 297.365 42.1317 296.524 41.9591C295.704 41.7866 294.917 41.5709 294.162 41.3121C293.429 41.0533 292.825 40.6543 292.351 40.1151C291.898 39.576 291.671 38.8319 291.671 37.8829C291.671 36.8477 291.962 35.9527 292.545 35.1978C293.127 34.4214 293.947 33.8283 295.003 33.4185C296.06 32.9872 297.3 32.7715 298.724 32.7715C299.78 32.7715 300.816 32.9225 301.829 33.2244C302.865 33.5048 303.684 33.9038 304.288 34.4214L303.544 35.6831C302.897 35.187 302.131 34.8204 301.247 34.5832C300.384 34.3244 299.5 34.1949 298.594 34.1949C296.934 34.1949 295.629 34.5185 294.68 35.1655C293.731 35.8125 293.256 36.6644 293.256 37.7212C293.256 38.4545 293.494 39.0152 293.968 39.4034C294.443 39.7916 295.046 40.0828 295.78 40.2769C296.513 40.471 297.3 40.6543 298.141 40.8269C298.982 40.9778 299.77 41.1935 300.503 41.4739C301.258 41.7327 301.862 42.1209 302.315 42.6385C302.789 43.1561 303.026 43.8894 303.026 44.8383C303.026 45.8951 302.724 46.8117 302.12 47.5882C301.517 48.343 300.675 48.9253 299.597 49.3351C298.519 49.7233 297.246 49.9174 295.78 49.9174ZM315.337 49.9174C313.763 49.9174 312.393 49.637 311.228 49.0763C310.064 48.494 309.169 47.6744 308.543 46.6176C307.939 45.5608 307.637 44.2992 307.637 42.8326C307.637 40.9131 308.036 39.1985 308.834 37.6888C309.654 36.1791 310.754 34.9822 312.134 34.0979C313.536 33.2136 315.111 32.7715 316.857 32.7715C318.346 32.7715 319.618 33.0519 320.675 33.6126C321.732 34.1734 322.551 34.9822 323.133 36.0389C323.737 37.0742 324.039 38.3358 324.039 39.824C324.039 40.1475 324.018 40.471 323.975 40.7945C323.931 41.118 323.888 41.4199 323.845 41.7003H308.867L309.093 40.4386H323.069L322.422 40.9886C322.659 39.5005 322.562 38.2604 322.131 37.2683C321.699 36.2546 321.02 35.489 320.093 34.9714C319.187 34.4322 318.098 34.1626 316.825 34.1626C315.359 34.1626 314.043 34.54 312.878 35.2949C311.735 36.0282 310.84 37.0418 310.193 38.3358C309.546 39.6083 309.223 41.0857 309.223 42.7679C309.223 44.6011 309.751 46.0138 310.808 47.0058C311.865 47.9764 313.417 48.4616 315.466 48.4616C316.674 48.4616 317.774 48.2675 318.766 47.8793C319.78 47.4695 320.61 46.9088 321.257 46.1971L322.001 47.3294C321.268 48.1273 320.308 48.7636 319.122 49.238C317.957 49.691 316.696 49.9174 315.337 49.9174Z" fill="black"/>
<circle cx="396.998" cy="37.788" r="36.4341" fill="white" stroke="#CACACA" stroke-width="2"/>
<circle cx="396.997" cy="27.5063" r="12.9366" fill="#CACACA"/>
<path d="M424.832 62.9271C424.832 62.9271 415.004 75.1313 396.145 75.1313C377.285 75.1313 369.674 62.9271 369.674 62.9271C369.674 62.9271 381.501 42.465 396.999 42.465C412.498 42.465 424.832 62.9271 424.832 62.9271Z" fill="#CACACA"/>
</svg>
