<svg width="784" height="114" viewBox="0 0 784 114" fill="none" xmlns="http://www.w3.org/2000/svg">
<path d="M114.951 85.9578C113.977 85.9578 113.56 85.3317 113.768 84.4273L122.534 43.452H105.838C104.864 43.452 104.446 42.8259 104.655 41.9215L105.42 38.0953C105.559 37.2605 106.116 36.8431 106.951 36.8431H147.37C148.343 36.8431 148.761 37.4692 148.552 38.3736L147.787 42.1998C147.648 43.0346 147.091 43.452 146.256 43.452H129.352L120.586 84.7055C120.447 85.4708 119.89 85.9578 119.056 85.9578H114.951ZM182.938 36.8431C197.547 36.8431 202.208 42.1998 199.703 53.8176L199.495 54.7219C197.547 63.9049 194.138 69.2616 185.094 70.8616L191.633 84.2881C192.12 85.2621 191.703 85.9578 190.66 85.9578H185.929C185.164 85.9578 184.677 85.6795 184.329 84.9143L178.068 71.3486H156.78L153.928 84.7055C153.789 85.4708 153.232 85.9578 152.397 85.9578H148.362C147.389 85.9578 146.971 85.3317 147.18 84.4273L156.989 38.0953C157.128 37.33 157.685 36.8431 158.519 36.8431H182.938ZM192.886 53.8176C194.764 45.3999 191.842 43.452 182.033 43.452H162.763L158.171 64.8092H177.511C187.251 64.8092 190.729 63.0005 192.677 54.6524L192.886 53.8176ZM204.136 85.9578C203.162 85.9578 202.745 85.3317 202.953 84.4273L212.762 38.0953C212.902 37.33 213.458 36.8431 214.293 36.8431H253.042C254.016 36.8431 254.433 37.4692 254.225 38.3736L253.459 42.1998C253.32 43.0346 252.764 43.452 251.929 43.452H218.467L215.476 57.7133H238.015C238.989 57.7133 239.407 58.3394 239.198 59.2438L238.433 62.8613C238.294 63.6266 237.737 64.1136 236.902 64.1136H214.084L210.815 79.3488H243.998C244.972 79.3488 245.39 79.975 245.181 80.8793L244.416 84.7055C244.277 85.5404 243.72 85.9578 242.885 85.9578H204.136ZM255.426 85.9578C254.452 85.9578 254.034 85.3317 254.243 84.4273L264.052 38.0953C264.191 37.33 264.748 36.8431 265.583 36.8431H269.618C270.592 36.8431 271.009 37.4692 270.8 38.3736L260.991 84.7055C260.852 85.4708 260.296 85.9578 259.461 85.9578H255.426ZM273.766 85.9578C272.792 85.9578 272.375 85.3317 272.583 84.4273L282.392 38.0953C282.532 37.33 283.088 36.8431 283.923 36.8431H288.236C289.001 36.8431 289.558 37.1213 289.906 37.7475L313.35 76.5661L321.559 38.0953C321.698 37.33 322.255 36.8431 323.09 36.8431H327.124C328.098 36.8431 328.516 37.4692 328.307 38.3736L318.498 84.7055C318.359 85.4708 317.802 85.9578 316.968 85.9578H312.585C311.82 85.9578 311.263 85.6099 310.915 84.9838L287.471 46.1651L279.332 84.7055C279.192 85.4708 278.636 85.9578 277.801 85.9578H273.766ZM346.333 85.9578C334.367 85.9578 330.193 79.8358 332.489 69.0528L335.689 53.8176C337.985 42.965 342.924 36.8431 354.889 36.8431H372.351C384.317 36.8431 388.491 42.965 386.125 53.8176L382.925 69.0528C380.699 79.8358 375.76 85.9578 363.794 85.9578H346.333ZM346.75 79.3488H364.281C371.516 79.3488 374.508 76.7748 376.108 69.2616L379.377 53.6089C381.047 45.9564 379.169 43.452 371.934 43.452H354.403C347.167 43.452 344.246 45.9564 342.576 53.6089L339.306 69.2616C337.706 76.7748 339.515 79.3488 346.75 79.3488ZM411.67 85.9578C410.696 85.9578 410.279 85.3317 410.488 84.4273L420.297 38.0953C420.436 37.33 420.992 36.8431 421.827 36.8431H460.576C461.55 36.8431 461.968 37.4692 461.759 38.3736L460.994 42.1998C460.854 43.0346 460.298 43.452 459.463 43.452H426.001L423.01 57.7133H445.55C446.524 57.7133 446.941 58.3394 446.732 59.2438L445.967 62.8613C445.828 63.6266 445.271 64.1136 444.437 64.1136H421.618L418.349 79.3488H451.532C452.506 79.3488 452.924 79.975 452.715 80.8793L451.95 84.7055C451.811 85.5404 451.254 85.9578 450.419 85.9578H411.67ZM458.577 85.9578C457.325 85.9578 456.977 85.0534 457.882 84.2186L482.787 60.2178L469.569 38.5127C469.012 37.5388 469.36 36.8431 470.473 36.8431H475.343C476.108 36.8431 476.595 37.0518 477.013 37.7475L487.796 55.348L506.022 37.5388C506.509 37.0518 506.996 36.8431 507.692 36.8431H513.536C514.788 36.8431 515.066 37.7475 514.162 38.5823L491.065 60.8439L505.535 84.2881C506.092 85.2621 505.744 85.9578 504.631 85.9578H499.761C498.996 85.9578 498.509 85.7491 498.092 85.0534L486.196 65.7832L466.09 85.2621C465.604 85.7491 465.117 85.9578 464.421 85.9578H458.577ZM514.521 85.9578C513.548 85.9578 513.13 85.3317 513.339 84.4273L523.148 38.0953C523.287 37.33 523.843 36.8431 524.678 36.8431H549.097C563.706 36.8431 568.297 42.2693 565.584 53.8176L565.306 55.0002C562.593 66.5484 558.14 71.6268 543.601 71.6268H522.939L520.087 84.7055C519.948 85.4708 519.391 85.9578 518.556 85.9578H514.521ZM524.261 65.0875H543.601C553.201 65.0875 556.471 63.2787 558.488 54.9306L558.766 53.8871C560.784 45.3999 557.862 43.452 548.192 43.452H528.922L524.261 65.0875ZM604.598 36.8431C619.208 36.8431 623.869 42.1998 621.364 53.8176L621.155 54.7219C619.208 63.9049 615.799 69.2616 606.755 70.8616L613.294 84.2881C613.781 85.2621 613.364 85.9578 612.32 85.9578H607.59C606.825 85.9578 606.338 85.6795 605.99 84.9143L599.729 71.3486H578.441L575.589 84.7055C575.45 85.4708 574.893 85.9578 574.058 85.9578H570.023C569.049 85.9578 568.632 85.3317 568.841 84.4273L578.65 38.0953C578.789 37.33 579.345 36.8431 580.18 36.8431H604.598ZM614.547 53.8176C616.425 45.3999 613.503 43.452 603.694 43.452H584.424L579.832 64.8092H599.172C608.912 64.8092 612.39 63.0005 614.338 54.6524L614.547 53.8176ZM625.797 85.9578C624.823 85.9578 624.406 85.3317 624.614 84.4273L634.423 38.0953C634.562 37.33 635.119 36.8431 635.954 36.8431H674.703C675.677 36.8431 676.094 37.4692 675.886 38.3736L675.12 42.1998C674.981 43.0346 674.425 43.452 673.59 43.452H640.128L637.136 57.7133H659.676C660.65 57.7133 661.068 58.3394 660.859 59.2438L660.094 62.8613C659.955 63.6266 659.398 64.1136 658.563 64.1136H635.745L632.475 79.3488H665.659C666.633 79.3488 667.05 79.975 666.842 80.8793L666.077 84.7055C665.937 85.5404 665.381 85.9578 664.546 85.9578H625.797ZM689.716 85.9578C678.098 85.9578 673.715 81.1576 675.524 70.6529C675.733 69.8181 676.22 69.4007 677.055 69.4007H681.09C681.994 69.4007 682.481 69.9572 682.342 70.9312C681.298 77.3314 683.385 79.3488 690.133 79.3488H703.421C711.073 79.3488 713.925 77.6097 715.178 71.9747C716.291 66.618 714.134 65.5049 707.803 65.0179L693.403 63.8353C682.829 62.9309 678.168 59.5917 680.046 50.4783C682.063 41.1563 686.446 36.8431 699.038 36.8431H711.282C722.9 36.8431 727.213 41.5737 725.404 52.1479C725.265 52.9827 724.778 53.4002 723.943 53.4002H719.908C719.004 53.4002 718.517 52.8436 718.656 51.8697C719.699 45.4695 717.612 43.452 710.795 43.452H698.621C690.899 43.452 688.116 45.1216 686.864 50.8262C685.751 56.1133 687.768 57.0872 694.516 57.7133L708.917 58.8264C719.352 59.6612 723.874 63.07 721.926 72.1834C719.908 81.4359 715.595 85.9578 703.003 85.9578H689.716ZM744.47 85.9578C732.853 85.9578 728.47 81.1576 730.279 70.6529C730.487 69.8181 730.974 69.4007 731.809 69.4007H735.844C736.748 69.4007 737.235 69.9572 737.096 70.9312C736.053 77.3314 738.14 79.3488 744.888 79.3488H758.175C765.828 79.3488 768.68 77.6097 769.932 71.9747C771.045 66.618 768.889 65.5049 762.558 65.0179L748.158 63.8353C737.583 62.9309 732.922 59.5917 734.801 50.4783C736.818 41.1563 741.201 36.8431 753.793 36.8431H766.036C777.654 36.8431 781.967 41.5737 780.159 52.1479C780.019 52.9827 779.533 53.4002 778.698 53.4002H774.663C773.758 53.4002 773.271 52.8436 773.411 51.8697C774.454 45.4695 772.367 43.452 765.549 43.452H753.375C745.653 43.452 742.87 45.1216 741.618 50.8262C740.505 56.1133 742.523 57.0872 749.271 57.7133L763.671 58.8264C774.106 59.6612 778.628 63.07 776.68 72.1834C774.663 81.4359 770.35 85.9578 757.758 85.9578H744.47Z" fill="white"/>
<g clip-path="url(#clip0_76_167)">
<path d="M84.9873 72.5297V75.8684L84.3796 80.3027C81.4776 96.7063 67.4444 110.326 50.0038 113.218C48.628 113.446 47.2267 113.503 45.8666 113.795C43.7525 113.672 41.4354 113.961 39.3469 113.795C37.3493 113.636 34.5523 113.081 32.5689 112.635C4.65876 106.37 -8.56511 75.5501 6.57404 52.5893C0.158042 36.7582 -4.0431 7.81015 18.5116 1.81748C20.5958 1.26369 21.1751 1.33592 23.2537 1.35465C32.0237 1.43625 40.7326 1.07107 49.487 0.953356C59.319 0.820928 69.939 -0.277282 76.8391 7.62288C87.009 19.2658 84.0843 40.4006 78.6025 53.5002C78.6068 53.931 80.0635 56.0311 80.3829 56.633C82.9513 61.4807 84.6366 67.1229 84.9873 72.527V72.5297ZM64.7113 40.0716C65.221 39.7385 66.0559 32.6476 66.1354 31.5962C66.4747 27.1258 66.6635 20.6275 62.4141 17.7449C50.5362 17.6646 38.5433 17.4359 26.6682 17.781C25.619 17.8118 22.575 17.5322 21.9105 18.106C21.6777 18.3067 21.0658 19.1039 20.8627 19.3902C16.8235 25.106 19.7525 33.2563 20.3545 39.5432C22.9186 38.8035 25.1775 37.3949 27.6891 36.5054C39.1283 32.4537 51.567 33.5131 62.2622 38.853C62.6441 39.0443 64.4969 40.2107 64.7099 40.0716H64.7113ZM32.9692 70.9272C35.6157 68.1636 40.0298 65.8374 40.4643 61.7629C41.1713 55.1335 34.6261 52.7431 28.6474 53.4334C25.1079 53.8427 21.6507 55.6004 20.0819 58.6943L26.0989 61.577C26.9394 60.9603 27.3071 60.1484 28.4359 59.7792C31.9257 58.6395 33.3256 61.0968 31.1221 63.645C28.8362 66.2882 24.655 69.2885 21.9162 71.8033C21.7501 71.9558 21.4874 71.9732 21.4874 71.9946V76.9359H41.0478V70.9258H32.9692V70.9272ZM53.3502 53.3384C44.4979 53.6501 41.5249 61.91 43.0994 69.0611C45.5102 80.0205 61.3337 80.4392 64.3649 69.857C66.5599 62.1963 63.0686 52.996 53.3502 53.3384ZM26.0237 80.4084H21.6294V94.5648H26.4482V88.6885L29.5646 93.298C30.2447 93.3448 31.6105 93.5802 32.0421 93.0907L35.0947 88.2872V94.5634H39.7714V80.4071H35.5902L30.7714 87.7494L26.0237 80.4071V80.4084ZM47.4255 80.4084H42.1808V94.5648H47.4255V80.4084ZM59.6157 86.5509C57.5954 84.6528 55.9342 82.4109 54.0175 80.4084H49.6943V94.5648H54.797V88.2885L60.3952 94.5648H64.7184V80.4084H59.6157V86.5509Z" fill="white"/>
</g>
<defs>
<clipPath id="clip0_76_167">
<rect width="84.7625" height="113.017" fill="white" transform="translate(0.224609 0.830566)"/>
</clipPath>
</defs>
</svg>
