<svg width="624" height="91" viewBox="0 0 624 91" fill="none" xmlns="http://www.w3.org/2000/svg">
<path d="M91.4205 68.7219C90.6451 68.7219 90.3128 68.2235 90.4789 67.5034L97.4578 34.8798H84.1647C83.3893 34.8798 83.0569 34.3813 83.2231 33.6612L83.8324 30.6149C83.9431 29.9502 84.3862 29.6179 85.0509 29.6179H117.231C118.007 29.6179 118.339 30.1164 118.173 30.8364L117.564 33.8828C117.453 34.5475 117.01 34.8798 116.345 34.8798H102.886L95.907 67.725C95.7962 68.3342 95.3531 68.7219 94.6884 68.7219H91.4205ZM145.55 29.6179C157.181 29.6179 160.892 33.8828 158.898 43.1326L158.732 43.8527C157.181 51.1639 154.467 55.4288 147.267 56.7027L152.473 67.3926C152.861 68.1681 152.529 68.7219 151.698 68.7219H147.932C147.322 68.7219 146.935 68.5004 146.658 67.8911L141.673 57.0904H124.724L122.453 67.725C122.342 68.3342 121.899 68.7219 121.235 68.7219H118.022C117.247 68.7219 116.914 68.2235 117.08 67.5034L124.89 30.6149C125.001 30.0056 125.444 29.6179 126.109 29.6179H145.55ZM153.47 43.1326C154.966 36.4307 152.64 34.8798 144.83 34.8798H129.487L125.832 51.8839H141.23C148.984 51.8839 151.753 50.4439 153.304 43.7973L153.47 43.1326ZM162.428 68.7219C161.652 68.7219 161.32 68.2235 161.486 67.5034L169.296 30.6149C169.407 30.0056 169.85 29.6179 170.514 29.6179H201.366C202.141 29.6179 202.473 30.1164 202.307 30.8364L201.698 33.8828C201.587 34.5475 201.144 34.8798 200.479 34.8798H173.838L171.456 46.2344H189.402C190.177 46.2344 190.51 46.7328 190.343 47.4529L189.734 50.3331C189.623 50.9423 189.18 51.3301 188.516 51.3301H170.348L167.745 63.4601H194.165C194.941 63.4601 195.273 63.9586 195.107 64.6786L194.497 67.725C194.387 68.3896 193.944 68.7219 193.279 68.7219H162.428ZM203.263 68.7219C202.488 68.7219 202.156 68.2235 202.322 67.5034L210.132 30.6149C210.242 30.0056 210.686 29.6179 211.35 29.6179H214.563C215.338 29.6179 215.67 30.1164 215.504 30.8364L207.695 67.725C207.584 68.3342 207.141 68.7219 206.476 68.7219H203.263ZM217.866 68.7219C217.09 68.7219 216.758 68.2235 216.924 67.5034L224.734 30.6149C224.845 30.0056 225.288 29.6179 225.952 29.6179H229.386C229.996 29.6179 230.439 29.8395 230.716 30.338L249.381 61.2445L255.917 30.6149C256.028 30.0056 256.471 29.6179 257.136 29.6179H260.348C261.124 29.6179 261.456 30.1164 261.29 30.8364L253.48 67.725C253.369 68.3342 252.926 68.7219 252.262 68.7219H248.772C248.163 68.7219 247.72 68.445 247.443 67.9465L228.777 37.0399L222.297 67.725C222.186 68.3342 221.743 68.7219 221.078 68.7219H217.866ZM275.642 68.7219C266.115 68.7219 262.791 63.8478 264.619 55.2626L267.167 43.1326C268.995 34.4921 272.928 29.6179 282.454 29.6179H296.357C305.883 29.6179 309.207 34.4921 307.324 43.1326L304.776 55.2626C303.003 63.8478 299.071 68.7219 289.544 68.7219H275.642ZM275.974 63.4601H289.932C295.692 63.4601 298.074 61.4107 299.348 55.4288L301.951 42.9665C303.28 36.8738 301.785 34.8798 296.024 34.8798H282.067C276.306 34.8798 273.98 36.8738 272.651 42.9665L270.047 55.4288C268.773 61.4107 270.213 63.4601 275.974 63.4601ZM327.662 68.7219C326.886 68.7219 326.554 68.2235 326.72 67.5034L334.53 30.6149C334.641 30.0056 335.084 29.6179 335.748 29.6179H366.6C367.375 29.6179 367.707 30.1164 367.541 30.8364L366.932 33.8828C366.821 34.5475 366.378 34.8798 365.713 34.8798H339.072L336.69 46.2344H354.636C355.411 46.2344 355.744 46.7328 355.577 47.4529L354.968 50.3331C354.857 50.9423 354.414 51.3301 353.75 51.3301H335.582L332.979 63.4601H359.399C360.175 63.4601 360.507 63.9586 360.341 64.6786L359.732 67.725C359.621 68.3896 359.178 68.7219 358.513 68.7219H327.662ZM365.008 68.7219C364.011 68.7219 363.734 68.0019 364.454 67.3372L384.283 48.2283L373.759 30.9472C373.316 30.1718 373.593 29.6179 374.48 29.6179H378.357C378.966 29.6179 379.354 29.7841 379.686 30.338L388.271 44.3512L402.783 30.1718C403.171 29.7841 403.558 29.6179 404.112 29.6179H408.765C409.762 29.6179 409.983 30.338 409.263 31.0026L390.874 48.7268L402.395 67.3926C402.838 68.1681 402.561 68.7219 401.675 68.7219H397.798C397.189 68.7219 396.801 68.5558 396.469 68.0019L386.997 52.6594L370.99 68.1681C370.602 68.5558 370.215 68.7219 369.661 68.7219H365.008ZM409.55 68.7219C408.774 68.7219 408.442 68.2235 408.608 67.5034L416.418 30.6149C416.529 30.0056 416.972 29.6179 417.636 29.6179H437.078C448.709 29.6179 452.365 33.9382 450.205 43.1326L449.983 44.0742C447.823 53.2687 444.278 57.312 432.702 57.312H416.252L413.981 67.725C413.87 68.3342 413.427 68.7219 412.762 68.7219H409.55ZM417.304 52.1055H432.702C440.346 52.1055 442.949 50.6654 444.555 44.0188L444.777 43.188C446.383 36.4307 444.057 34.8798 436.358 34.8798H421.015L417.304 52.1055ZM481.267 29.6179C492.899 29.6179 496.61 33.8828 494.616 43.1326L494.449 43.8527C492.899 51.1639 490.185 55.4288 482.984 56.7027L488.191 67.3926C488.578 68.1681 488.246 68.7219 487.415 68.7219H483.649C483.039 68.7219 482.652 68.5004 482.375 67.8911L477.39 57.0904H460.441L458.17 67.725C458.059 68.3342 457.616 68.7219 456.952 68.7219H453.739C452.964 68.7219 452.631 68.2235 452.798 67.5034L460.607 30.6149C460.718 30.0056 461.161 29.6179 461.826 29.6179H481.267ZM489.188 43.1326C490.683 36.4307 488.357 34.8798 480.547 34.8798H465.204L461.549 51.8839H476.947C484.701 51.8839 487.47 50.4439 489.021 43.7973L489.188 43.1326ZM498.145 68.7219C497.369 68.7219 497.037 68.2235 497.203 67.5034L505.013 30.6149C505.124 30.0056 505.567 29.6179 506.232 29.6179H537.083C537.858 29.6179 538.19 30.1164 538.024 30.8364L537.415 33.8828C537.304 34.5475 536.861 34.8798 536.196 34.8798H509.555L507.173 46.2344H525.119C525.894 46.2344 526.227 46.7328 526.06 47.4529L525.451 50.3331C525.34 50.9423 524.897 51.3301 524.233 51.3301H506.065L503.462 63.4601H529.882C530.658 63.4601 530.99 63.9586 530.824 64.6786L530.215 67.725C530.104 68.3896 529.661 68.7219 528.996 68.7219H498.145ZM549.036 68.7219C539.786 68.7219 536.296 64.9002 537.737 56.5366C537.903 55.8719 538.29 55.5396 538.955 55.5396H542.168C542.888 55.5396 543.275 55.9827 543.165 56.7581C542.334 61.8538 543.995 63.4601 549.368 63.4601H559.947C566.04 63.4601 568.311 62.0754 569.308 57.5889C570.194 53.324 568.477 52.4378 563.437 52.0501L551.971 51.1085C543.552 50.3885 539.841 47.7298 541.337 40.474C542.943 33.052 546.432 29.6179 556.458 29.6179H566.206C575.456 29.6179 578.89 33.3843 577.45 41.8033C577.339 42.468 576.951 42.8003 576.287 42.8003H573.074C572.354 42.8003 571.966 42.3572 572.077 41.5818C572.908 36.486 571.246 34.8798 565.818 34.8798H556.125C549.977 34.8798 547.762 36.2091 546.765 40.7509C545.879 44.9604 547.485 45.7359 552.858 46.2344L564.323 47.1206C572.631 47.7852 576.231 50.4992 574.68 57.7551C573.074 65.1217 569.64 68.7219 559.615 68.7219H549.036ZM592.63 68.7219C583.38 68.7219 579.891 64.9002 581.331 56.5366C581.497 55.8719 581.885 55.5396 582.549 55.5396H585.762C586.482 55.5396 586.87 55.9827 586.759 56.7581C585.928 61.8538 587.59 63.4601 592.962 63.4601H603.542C609.634 63.4601 611.905 62.0754 612.902 57.5889C613.788 53.324 612.071 52.4378 607.031 52.0501L595.566 51.1085C587.147 50.3885 583.436 47.7298 584.931 40.474C586.537 33.052 590.027 29.6179 600.052 29.6179H609.8C619.05 29.6179 622.484 33.3843 621.044 41.8033C620.933 42.468 620.546 42.8003 619.881 42.8003H616.669C615.948 42.8003 615.561 42.3572 615.672 41.5818C616.502 36.486 614.841 34.8798 609.413 34.8798H599.72C593.572 34.8798 591.356 36.2091 590.359 40.7509C589.473 44.9604 591.079 45.7359 596.452 46.2344L607.917 47.1206C616.225 47.7852 619.826 50.4992 618.275 57.7551C616.669 65.1217 613.234 68.7219 603.209 68.7219H592.63Z" fill="black"/>
<g clip-path="url(#clip0_76_162)">
<path d="M67.6532 57.5595V60.2178L67.1693 63.7483C64.8588 76.8085 53.6859 87.6524 39.8001 89.9549C38.7047 90.136 37.589 90.1817 36.5061 90.4139C34.8229 90.3159 32.9781 90.546 31.3153 90.4139C29.7248 90.2872 27.4979 89.8452 25.9188 89.4906C3.69736 84.5021 -6.83119 59.9643 5.22227 41.6834C0.113993 29.0791 -3.23086 6.03126 14.7267 1.26003C16.3861 0.819116 16.8473 0.876626 18.5022 0.891537C25.4847 0.956502 32.4186 0.665755 39.3886 0.572034C47.2167 0.466599 55.6721 -0.407772 61.1658 5.88216C69.2629 15.152 66.9342 31.9791 62.5698 42.4087C62.5731 42.7516 63.7329 44.4237 63.9873 44.903C66.0322 48.7626 67.374 53.2548 67.6532 57.5574V57.5595ZM51.5099 31.7171C51.9157 31.4519 52.5804 25.8063 52.6437 24.9692C52.9139 21.41 53.0642 16.2362 49.6809 13.9411C40.224 13.8772 30.6755 13.6951 21.2208 13.9698C20.3855 13.9943 17.9619 13.7717 17.4329 14.2286C17.2475 14.3884 16.7603 15.0231 16.5986 15.251C13.3826 19.8018 15.7147 26.2909 16.1939 31.2964C18.2354 30.7075 20.0339 29.586 22.0336 28.8778C31.1412 25.6519 41.0447 26.4954 49.56 30.7469C49.864 30.8992 51.3392 31.8279 51.5088 31.7171H51.5099ZM26.2375 56.2836C28.3446 54.0833 31.859 52.2313 32.2049 48.9873C32.7679 43.7091 27.5567 41.8059 22.7966 42.3555C19.9785 42.6814 17.226 44.0808 15.9769 46.5441L20.7675 48.8392C21.4367 48.3483 21.7295 47.7018 22.6282 47.4079C25.4067 46.5005 26.5213 48.4569 24.7669 50.4857C22.947 52.5902 19.6179 54.979 17.4374 56.9812C17.3051 57.1026 17.096 57.1165 17.096 57.1335V61.0676H32.6695V56.2826H26.2375V56.2836ZM42.4644 42.2799C35.4164 42.528 33.0493 49.1044 34.303 54.7979C36.2224 63.5235 48.8207 63.8569 51.2341 55.4316C52.9817 49.3323 50.202 42.0072 42.4644 42.2799ZM20.7076 63.8324H17.209V75.1034H21.0456V70.4248L23.5268 74.0948C24.0683 74.1321 25.1558 74.3195 25.4994 73.9297L27.9298 70.1053V75.1023H31.6533V63.8313H28.3243L24.4877 69.6772L20.7076 63.8313V63.8324ZM37.7473 63.8324H33.5716V75.1034H37.7473V63.8324ZM47.4529 68.7229C45.8443 67.2117 44.5218 65.4267 42.9957 63.8324H39.5537V75.1034H43.6163V70.1064L48.0735 75.1034H51.5156V63.8324H47.4529V68.7229Z" fill="#010101"/>
</g>
<defs>
<clipPath id="clip0_76_162">
<rect width="67.486" height="89.9814" fill="white" transform="translate(0.166992 0.474274)"/>
</clipPath>
</defs>
</svg>
